<?xml version="1.0" encoding="UTF-8"?>
<!DOCTYPE svg PUBLIC "-//W3C//DTD SVG 1.1//EN" "http://www.w3.org/Graphics/SVG/1.1/DTD/svg11.dtd">
<svg xmlns="http://www.w3.org/2000/svg" version="1.1" width="512px" height="512px" style="shape-rendering:geometricPrecision; text-rendering:geometricPrecision; image-rendering:optimizeQuality; fill-rule:evenodd; clip-rule:evenodd" xmlns:xlink="http://www.w3.org/1999/xlink">
<g><path style="opacity:0.971" fill="#000000" d="M 107.5,4.5 C 162.755,2.19909 202.255,25.8658 226,75.5C 243.421,124.741 233.921,167.908 197.5,205C 159.859,235.951 118.193,242.617 72.5,225C 24.3096,200.806 1.80964,161.639 5,107.5C 11.8239,59.3179 37.9906,26.8179 83.5,10C 91.5122,7.61722 99.5122,5.78389 107.5,4.5 Z M 116.5,46.5 C 154.48,47.8864 179.314,66.5531 191,102.5C 197.571,139.832 184.404,167.666 151.5,186C 113.228,200.461 82.0615,191.294 58,158.5C 39.0194,121.907 44.8528,89.7405 75.5,62C 87.8912,53.1517 101.558,47.9851 116.5,46.5 Z"/></g>
<g><path style="opacity:0.971" fill="#000000" d="M 378.5,4.5 C 429.581,1.61785 468.081,21.9512 494,65.5C 514.84,111.604 509.84,154.604 479,194.5C 444.54,230.982 403.04,242.482 354.5,229C 317.841,215.674 293.341,190.508 281,153.5C 269.32,107.373 280.154,67.5398 313.5,34C 332.238,17.6298 353.904,7.7965 378.5,4.5 Z M 386.5,45.5 C 427.308,46.8218 452.808,67.1551 463,106.5C 466.726,147.096 449.56,174.596 411.5,189C 373.142,197.225 344.309,184.392 325,150.5C 310.745,113.28 319.245,82.447 350.5,58C 361.74,51.3103 373.74,47.1436 386.5,45.5 Z"/></g>
<g><path style="opacity:0.971" fill="#000000" d="M 107.5,276.5 C 157.183,273.921 195.017,293.588 221,335.5C 243.781,381.397 239.781,424.73 209,465.5C 174.443,502.682 132.61,514.515 83.5,501C 37.9906,484.182 11.8239,451.682 5,403.5C 1.83764,354.32 21.0043,316.82 62.5,291C 76.7792,283.522 91.7792,278.689 107.5,276.5 Z M 116.5,318.5 C 154.48,319.886 179.314,338.553 191,374.5C 197.571,411.832 184.404,439.666 151.5,458C 113.228,472.461 82.0615,463.294 58,430.5C 39.0194,393.907 44.8528,361.74 75.5,334C 87.8912,325.152 101.558,319.985 116.5,318.5 Z"/></g>
<g><path style="opacity:0.971" fill="#000000" d="M 378.5,276.5 C 428.59,273.625 466.757,293.292 493,335.5C 515.781,381.397 511.781,424.73 481,465.5C 443.636,505.177 399.136,516.01 347.5,498C 297.745,473.861 274.245,434.027 277,378.5C 287.012,320.655 320.846,286.655 378.5,276.5 Z M 386.5,317.5 C 427.308,318.822 452.808,339.155 463,378.5C 466.726,419.096 449.56,446.596 411.5,461C 373.142,469.225 344.309,456.392 325,422.5C 310.745,385.28 319.245,354.447 350.5,330C 361.74,323.31 373.74,319.144 386.5,317.5 Z"/></g>
</svg>
