<?xml version="1.0" encoding="UTF-8"?>
<!DOCTYPE svg PUBLIC "-//W3C//DTD SVG 1.1//EN" "http://www.w3.org/Graphics/SVG/1.1/DTD/svg11.dtd">
<svg xmlns="http://www.w3.org/2000/svg" version="1.1" width="512px" height="512px" style="shape-rendering:geometricPrecision; text-rendering:geometricPrecision; image-rendering:optimizeQuality; fill-rule:evenodd; clip-rule:evenodd" xmlns:xlink="http://www.w3.org/1999/xlink">
<g><path style="opacity:0.986" fill="#000000" d="M 511.5,57.5 C 511.5,63.5 511.5,69.5 511.5,75.5C 509.114,84.8062 505.614,93.8062 501,102.5C 493.741,114.688 485.741,126.354 477,137.5C 428.239,197.351 379.239,257.017 330,316.5C 300.441,356.263 269.441,394.929 237,432.5C 224.402,446.103 210.902,458.603 196.5,470C 177.272,483.613 156.939,485.613 135.5,476C 126.15,471.328 117.483,465.662 109.5,459C 76.3263,427.406 47.8263,392.239 24,353.5C 12.1347,332.723 3.96806,310.723 -0.5,287.5C -0.5,279.5 -0.5,271.5 -0.5,263.5C 5.01345,245.572 17.0134,239.405 35.5,245C 46.3367,248.418 56.3367,253.418 65.5,260C 73.1667,266.333 80.8333,272.667 88.5,279C 113.362,303.528 137.862,328.361 162,353.5C 169.499,340.336 178.166,328.003 188,316.5C 260.918,241.261 331.251,163.928 399,84.5C 414.313,66.515 431.48,50.6817 450.5,37C 472.505,23.6392 491.338,27.1392 507,47.5C 508.62,50.8932 510.12,54.2265 511.5,57.5 Z M 27.5,269.5 C 27.56,268.957 27.8933,268.624 28.5,268.5C 31.0561,269.051 33.3894,270.051 35.5,271.5C 32.9503,271.564 30.2836,270.897 27.5,269.5 Z"/></g>
</svg>
