<?xml version="1.0" encoding="UTF-8"?>
<!DOCTYPE svg PUBLIC "-//W3C//DTD SVG 1.1//EN" "http://www.w3.org/Graphics/SVG/1.1/DTD/svg11.dtd">
<svg xmlns="http://www.w3.org/2000/svg" version="1.1" width="512px" height="512px" style="shape-rendering:geometricPrecision; text-rendering:geometricPrecision; image-rendering:optimizeQuality; fill-rule:evenodd; clip-rule:evenodd" xmlns:xlink="http://www.w3.org/1999/xlink">
<g><path style="opacity:0.991" fill="#000002" d="M 511.5,234.5 C 511.5,249.5 511.5,264.5 511.5,279.5C 498.688,378.305 447.355,449.138 357.5,492C 334.76,501.768 311.094,507.935 286.5,510.5C 286.5,443.5 286.5,376.5 286.5,309.5C 306.844,309.833 327.178,309.5 347.5,308.5C 350.991,285.241 353.991,261.908 356.5,238.5C 333.167,238.5 309.833,238.5 286.5,238.5C 286.333,219.497 286.5,200.497 287,181.5C 289.81,167.03 298.643,159.197 313.5,158C 328.83,157.5 344.163,157.333 359.5,157.5C 359.5,136.5 359.5,115.5 359.5,94.5C 335.537,91.6683 311.537,91.1683 287.5,93C 243.546,101.349 219.046,127.849 214,172.5C 213.5,194.497 213.333,216.497 213.5,238.5C 192.833,238.5 172.167,238.5 151.5,238.5C 151.5,262.167 151.5,285.833 151.5,309.5C 172.167,309.5 192.833,309.5 213.5,309.5C 213.833,376.17 213.5,442.837 212.5,509.5C 117.649,490.179 51.8157,435.845 15,346.5C 7.32502,324.604 2.15835,302.271 -0.5,279.5C -0.5,264.5 -0.5,249.5 -0.5,234.5C 11.0941,139.117 59.4275,69.284 144.5,25C 209.166,-3.92165 275.166,-7.25499 342.5,15C 421.293,45.7933 474.127,101.293 501,181.5C 506.025,199.009 509.525,216.676 511.5,234.5 Z"/></g>
</svg>
