<?xml version="1.0" encoding="UTF-8"?>
<!DOCTYPE svg PUBLIC "-//W3C//DTD SVG 1.1//EN" "http://www.w3.org/Graphics/SVG/1.1/DTD/svg11.dtd">
<svg xmlns="http://www.w3.org/2000/svg" version="1.1" width="512px" height="512px" style="shape-rendering:geometricPrecision; text-rendering:geometricPrecision; image-rendering:optimizeQuality; fill-rule:evenodd; clip-rule:evenodd" xmlns:xlink="http://www.w3.org/1999/xlink">
<g><path style="opacity:0.99" fill="#000000" d="M -0.5,384.5 C -0.5,270.833 -0.5,157.167 -0.5,43.5C 5.2005,22.969 18.5338,10.469 39.5,6C 143.868,5.01094 248.202,5.34427 352.5,7C 370,12.5 381.5,24 387,41.5C 388.151,77.4625 388.651,113.462 388.5,149.5C 388.333,183.833 388.167,218.167 388,252.5C 383.167,274.667 369.667,288.167 347.5,293C 272.167,293.333 196.833,293.667 121.5,294C 109.189,295.658 98.1887,300.324 88.5,308C 58.9611,333.71 29.2945,359.21 -0.5,384.5 Z M 83.5,96.5 C 157.167,96.3333 230.834,96.5 304.5,97C 312.052,101.535 312.385,106.535 305.5,112C 231.167,112.667 156.833,112.667 82.5,112C 78.1392,109.774 76.6392,106.274 78,101.5C 79.4055,99.2563 81.2389,97.5897 83.5,96.5 Z M 82.5,186.5 C 156.834,186.333 231.167,186.5 305.5,187C 312.402,192.416 312.069,197.416 304.5,202C 230.833,202.667 157.167,202.667 83.5,202C 75.8561,197.304 75.5227,192.137 82.5,186.5 Z"/></g>
<g><path style="opacity:0.989" fill="#000000" d="M 511.5,164.5 C 511.5,278.167 511.5,391.833 511.5,505.5C 481.039,479.543 450.705,453.376 420.5,427C 411.752,420.86 402.086,416.86 391.5,415C 316.167,414.667 240.833,414.333 165.5,414C 142.679,410.18 128.513,397.014 123,374.5C 122.5,352.836 122.333,331.169 122.5,309.5C 197.834,309.667 273.167,309.5 348.5,309C 379.22,303.28 397.72,285.113 404,254.5C 404.5,211.501 404.667,168.501 404.5,125.5C 424.503,125.333 444.503,125.5 464.5,126C 489.08,128.089 504.746,140.923 511.5,164.5 Z"/></g>
</svg>
