<?xml version="1.0" encoding="UTF-8"?>
<!DOCTYPE svg PUBLIC "-//W3C//DTD SVG 1.1//EN" "http://www.w3.org/Graphics/SVG/1.1/DTD/svg11.dtd">
<svg xmlns="http://www.w3.org/2000/svg" version="1.1" width="512px" height="512px" style="shape-rendering:geometricPrecision; text-rendering:geometricPrecision; image-rendering:optimizeQuality; fill-rule:evenodd; clip-rule:evenodd" xmlns:xlink="http://www.w3.org/1999/xlink">
<g><path style="opacity:0.987" fill="#000000" d="M 32.5,80.5 C 181.167,80.3333 329.834,80.5 478.5,81C 481.633,81.3925 484.633,82.2259 487.5,83.5C 422.258,146.12 356.591,208.287 290.5,270C 273.875,283.087 255.542,286.087 235.5,279C 230.003,276.755 225.003,273.755 220.5,270C 154.904,208.282 89.4045,146.449 24,84.5C 23.5683,83.3999 24.0683,82.7332 25.5,82.5C 28.0288,82.0711 30.3621,81.4045 32.5,80.5 Z"/></g>
<g><path style="opacity:0.989" fill="#000000" d="M -0.5,401.5 C -0.5,304.167 -0.5,206.833 -0.5,109.5C 0.482403,107.594 1.4824,105.594 2.5,103.5C 63.9843,161.15 125.318,218.984 186.5,277C 126.089,322.288 65.5893,367.455 5,412.5C 2.6738,408.983 0.840466,405.317 -0.5,401.5 Z"/></g>
<g><path style="opacity:0.989" fill="#000000" d="M 511.5,109.5 C 511.5,206.833 511.5,304.167 511.5,401.5C 510.16,405.317 508.326,408.983 506,412.5C 445.411,367.455 384.911,322.288 324.5,277C 385.682,218.984 447.016,161.15 508.5,103.5C 509.518,105.594 510.518,107.594 511.5,109.5 Z"/></g>
<g><path style="opacity:0.983" fill="#000000" d="M 201.5,291.5 C 237.334,318.148 273.167,318.148 309,291.5C 369.077,336.788 429.244,381.955 489.5,427C 486.043,428.743 482.377,429.743 478.5,430C 329.833,430.667 181.167,430.667 32.5,430C 28.6233,429.743 24.9567,428.743 21.5,427C 81.7473,382.056 141.747,336.889 201.5,291.5 Z"/></g>
</svg>
