<?xml version="1.0" encoding="UTF-8"?>
<!DOCTYPE svg PUBLIC "-//W3C//DTD SVG 1.1//EN" "http://www.w3.org/Graphics/SVG/1.1/DTD/svg11.dtd">
<svg xmlns="http://www.w3.org/2000/svg" version="1.1" width="512px" height="512px" style="shape-rendering:geometricPrecision; text-rendering:geometricPrecision; image-rendering:optimizeQuality; fill-rule:evenodd; clip-rule:evenodd" xmlns:xlink="http://www.w3.org/1999/xlink">
<g><path style="opacity:0.975" fill="#000000" d="M 233.5,-0.5 C 248.167,-0.5 262.833,-0.5 277.5,-0.5C 377.766,12.0408 449.266,64.0408 492,155.5C 502.296,180.684 508.796,206.684 511.5,233.5C 511.5,248.167 511.5,262.833 511.5,277.5C 498.959,377.766 446.959,449.266 355.5,492C 330.316,502.296 304.316,508.796 277.5,511.5C 262.833,511.5 248.167,511.5 233.5,511.5C 133.234,498.959 61.734,446.959 19,355.5C 8.70393,330.316 2.20393,304.316 -0.5,277.5C -0.5,262.833 -0.5,248.167 -0.5,233.5C 12.0408,133.234 64.0408,61.734 155.5,19C 180.684,8.70393 206.684,2.20393 233.5,-0.5 Z M 242.5,46.5 C 330.129,45.5457 395.963,82.5457 440,157.5C 472.943,223.662 472.609,289.662 439,355.5C 394.662,429.266 329.162,465.433 242.5,464C 166.091,456.518 108.924,419.684 71,353.5C 38.0573,287.338 38.3907,221.338 72,155.5C 110.351,90.5575 167.185,54.2241 242.5,46.5 Z"/></g>
<g><path style="opacity:0.967" fill="#000000" d="M 204.5,107.5 C 211.885,106.845 218.552,108.679 224.5,113C 266.667,155.167 308.833,197.333 351,239.5C 358.333,250.167 358.333,260.833 351,271.5C 308.833,313.667 266.667,355.833 224.5,398C 212.055,406.136 200.555,404.969 190,394.5C 184.458,385.335 184.124,376.001 189,366.5C 225.319,329.347 261.819,292.347 298.5,255.5C 261.819,218.653 225.319,181.653 189,144.5C 181.584,126.684 186.75,114.351 204.5,107.5 Z"/></g>
</svg>
