<?xml version="1.0" encoding="UTF-8"?>
<!DOCTYPE svg PUBLIC "-//W3C//DTD SVG 1.1//EN" "http://www.w3.org/Graphics/SVG/1.1/DTD/svg11.dtd">
<svg xmlns="http://www.w3.org/2000/svg" version="1.1" width="512px" height="512px" style="shape-rendering:geometricPrecision; text-rendering:geometricPrecision; image-rendering:optimizeQuality; fill-rule:evenodd; clip-rule:evenodd" xmlns:xlink="http://www.w3.org/1999/xlink">
<g><path style="opacity:0.981" fill="#000000" d="M 511.5,248.5 C 511.5,264.167 511.5,279.833 511.5,295.5C 508.432,337.204 494.932,375.204 471,409.5C 431.912,459.621 381.079,478.787 318.5,467C 274.227,452.225 246.894,422.058 236.5,376.5C 188.758,366.925 160.258,338.258 151,290.5C 150.333,263.5 150.333,236.5 151,209.5C 151.5,209 152,208.5 152.5,208C 163.495,207.5 174.495,207.333 185.5,207.5C 185.333,185.497 185.5,163.497 186,141.5C 191.58,126.627 202.08,121.46 217.5,126C 222.667,128.5 226.5,132.333 229,137.5C 230.459,160.781 230.959,184.114 230.5,207.5C 247.167,207.5 263.833,207.5 280.5,207.5C 280.041,184.114 280.541,160.781 282,137.5C 288.938,125.543 299.105,121.71 312.5,126C 318.911,129.306 323.078,134.472 325,141.5C 325.5,163.497 325.667,185.497 325.5,207.5C 336.505,207.333 347.505,207.5 358.5,208C 359,208.5 359.5,209 360,209.5C 360.667,236.5 360.667,263.5 360,290.5C 352.3,334.695 326.8,362.362 283.5,373.5C 291.758,401.824 310.425,418.991 339.5,425C 376.113,428.127 406.28,415.627 430,387.5C 452.346,358.436 464.346,325.436 466,288.5C 469.658,207.994 439.158,144.161 374.5,97C 309.873,55.4132 241.873,49.0799 170.5,78C 109.441,106.729 69.6079,153.563 51,218.5C 33.1821,302.037 55.3488,372.871 117.5,431C 127.948,439.446 138.948,447.113 150.5,454C 160.846,462.565 163.346,473.065 158,485.5C 146.379,498.548 133.546,499.714 119.5,489C 48.8219,442.437 8.82191,376.937 -0.5,292.5C -0.5,278.167 -0.5,263.833 -0.5,249.5C 12.1047,147.084 65.438,74.9173 159.5,33C 239.189,3.57828 315.856,9.91161 389.5,52C 460.984,98.0913 501.651,163.591 511.5,248.5 Z"/></g>
</svg>
