<?xml version="1.0" encoding="UTF-8"?>
<!DOCTYPE svg PUBLIC "-//W3C//DTD SVG 1.1//EN" "http://www.w3.org/Graphics/SVG/1.1/DTD/svg11.dtd">
<svg xmlns="http://www.w3.org/2000/svg" version="1.1" width="512px" height="512px" style="shape-rendering:geometricPrecision; text-rendering:geometricPrecision; image-rendering:optimizeQuality; fill-rule:evenodd; clip-rule:evenodd" xmlns:xlink="http://www.w3.org/1999/xlink">
<g><path style="opacity:0.941" fill="#000000" d="M 88.5,-0.5 C 199.167,-0.5 309.833,-0.5 420.5,-0.5C 428.148,2.31649 433.315,7.64982 436,15.5C 437.436,34.7869 437.936,54.1203 437.5,73.5C 442.179,73.3342 446.845,73.5008 451.5,74C 458.527,78.1377 459.194,83.1377 453.5,89C 448.177,89.4994 442.844,89.666 437.5,89.5C 437.5,165.833 437.5,242.167 437.5,318.5C 455.5,318.5 473.5,318.5 491.5,318.5C 491.667,245.499 491.5,172.499 491,99.5C 487.938,92.3752 482.438,88.8752 474.5,89C 469.632,84.8279 469.298,80.3279 473.5,75.5C 490.409,72.2146 501.576,78.8813 507,95.5C 507.993,199.556 507.66,303.556 506,407.5C 501.289,418.207 493.122,424.374 481.5,426C 427.168,426.5 372.834,426.667 318.5,426.5C 318.5,439.5 318.5,452.5 318.5,465.5C 342.524,468.687 354.69,482.354 355,506.5C 354.003,508.323 352.836,509.99 351.5,511.5C 287.5,511.5 223.5,511.5 159.5,511.5C 155.835,507.919 154.668,503.585 156,498.5C 160.088,478.579 172.255,467.579 192.5,465.5C 192.5,452.5 192.5,439.5 192.5,426.5C 166.165,426.667 139.831,426.5 113.5,426C 107.842,424.171 106.008,420.337 108,414.5C 108.5,412.667 109.667,411.5 111.5,411C 235.543,410.993 359.543,410.326 483.5,409C 487.085,407.084 489.585,404.251 491,400.5C 491.5,378.503 491.667,356.503 491.5,334.5C 334.167,334.5 176.833,334.5 19.5,334.5C 19.031,357.566 19.531,380.566 21,403.5C 23.4881,407.325 26.9881,409.492 31.5,410C 48.8333,410.333 66.1667,410.667 83.5,411C 89.2726,416.899 88.6059,421.899 81.5,426C 62.1286,426.922 42.7953,426.589 23.5,425C 13.281,421.746 6.78102,414.913 4,404.5C 3.33333,301.5 3.33333,198.5 4,95.5C 6.78102,85.0874 13.281,78.2541 23.5,75C 39.4511,73.5785 55.4511,73.0785 71.5,73.5C 71.0636,54.1203 71.5636,34.7869 73,15.5C 75.685,7.64982 80.8517,2.31649 88.5,-0.5 Z M 92.5,15.5 C 200.501,15.3333 308.501,15.5 416.5,16C 418.333,16.5 419.5,17.6667 420,19.5C 420.5,49.8315 420.667,80.1648 420.5,110.5C 333.166,110.333 245.833,110.5 158.5,111C 154.723,113.911 153.556,117.744 155,122.5C 156.214,124.049 157.714,125.215 159.5,126C 246.499,126.5 333.499,126.667 420.5,126.5C 420.5,190.5 420.5,254.5 420.5,318.5C 309.833,318.5 199.167,318.5 88.5,318.5C 88.5,254.5 88.5,190.5 88.5,126.5C 100.838,126.667 113.171,126.5 125.5,126C 130.069,123.459 131.569,119.625 130,114.5C 128.833,113.333 127.667,112.167 126.5,111C 113.838,110.5 101.171,110.333 88.5,110.5C 88.3334,80.1648 88.5,49.8315 89,19.5C 89.6897,17.6498 90.8564,16.3164 92.5,15.5 Z M 138.5,55.5 C 142.517,61.0162 146.184,66.8495 149.5,73C 142.5,73.6667 135.5,73.6667 128.5,73C 132.489,67.5185 135.822,61.6852 138.5,55.5 Z M 31.5,89.5 C 44.8333,89.5 58.1667,89.5 71.5,89.5C 71.5,165.833 71.5,242.167 71.5,318.5C 54.1667,318.5 36.8333,318.5 19.5,318.5C 19.3333,245.499 19.5,172.499 20,99.5C 22.1853,94.1403 26.0186,90.807 31.5,89.5 Z M 122.5,163.5 C 163.833,163.5 205.167,163.5 246.5,163.5C 246.5,189.5 246.5,215.5 246.5,241.5C 240.755,241.211 235.088,241.711 229.5,243C 221.878,246.477 214.545,250.477 207.5,255C 200.112,257.075 193.112,256.075 186.5,252C 178.5,246 170.5,240 162.5,234C 149.68,226.736 136.514,225.902 123,231.5C 122.5,208.836 122.333,186.169 122.5,163.5 Z M 202.5,195.5 C 209.685,195.848 212.519,199.515 211,206.5C 204.509,212.554 199.675,211.388 196.5,203C 197.608,199.732 199.608,197.232 202.5,195.5 Z M 133.5,244.5 C 142.791,243.099 151.125,245.266 158.5,251C 165.216,256.717 172.216,262.05 179.5,267C 193.999,274.531 208.333,274.198 222.5,266C 228.633,259.929 235.966,257.263 244.5,258C 246.459,267.572 247.126,277.405 246.5,287.5C 205.167,287.5 163.833,287.5 122.5,287.5C 122.333,274.829 122.5,262.162 123,249.5C 126.404,247.379 129.904,245.712 133.5,244.5 Z M 256.5,365.5 C 265.549,365.701 268.215,369.868 264.5,378C 256.398,380.895 252.565,378.062 253,369.5C 254.376,368.295 255.542,366.962 256.5,365.5 Z M 208.5,426.5 C 239.833,426.5 271.167,426.5 302.5,426.5C 302.5,439.5 302.5,452.5 302.5,465.5C 271.167,465.5 239.833,465.5 208.5,465.5C 208.5,452.5 208.5,439.5 208.5,426.5 Z M 192.5,481.5 C 234.501,481.333 276.501,481.5 318.5,482C 327.077,483.117 333.411,487.451 337.5,495C 282.833,495.667 228.167,495.667 173.5,495C 177.802,487.516 184.135,483.016 192.5,481.5 Z"/></g>
<g><path style="opacity:0.922" fill="#000000" d="M 136.5,30.5 C 139.602,30.154 142.435,30.8207 145,32.5C 154.828,48.6578 163.994,65.1578 172.5,82C 172.205,84.9234 170.871,87.2568 168.5,89C 149.899,90.6277 131.232,90.961 112.5,90C 106.842,88.1706 105.008,84.3373 107,78.5C 115.333,63.8333 123.667,49.1667 132,34.5C 133.397,32.9297 134.897,31.5964 136.5,30.5 Z M 138.5,55.5 C 135.822,61.6852 132.489,67.5185 128.5,73C 135.5,73.6667 142.5,73.6667 149.5,73C 146.184,66.8495 142.517,61.0162 138.5,55.5 Z"/></g>
<g><path style="opacity:0.892" fill="#000000" d="M 208.5,39.5 C 252.835,39.3333 297.168,39.5 341.5,40C 347.851,42.2014 349.685,46.368 347,52.5C 345.681,54.4875 343.848,55.6541 341.5,56C 297.167,56.6667 252.833,56.6667 208.5,56C 202.149,53.7986 200.315,49.632 203,43.5C 204.5,41.5313 206.333,40.198 208.5,39.5 Z"/></g>
<g><path style="opacity:0.934" fill="#000000" d="M 206.5,72.5 C 228.169,72.3334 249.836,72.5 271.5,73C 275.277,75.9547 276.443,79.788 275,84.5C 273.786,86.0488 272.286,87.2155 270.5,88C 249.167,88.6667 227.833,88.6667 206.5,88C 199.889,82.798 199.889,77.6314 206.5,72.5 Z"/></g>
<g><path style="opacity:0.948" fill="#000000" d="M 110.5,147.5 C 159.834,147.333 209.168,147.5 258.5,148C 259.667,149.167 260.833,150.333 262,151.5C 262.667,200.5 262.667,249.5 262,298.5C 261.535,299.931 260.701,301.097 259.5,302C 209.916,303.657 160.25,303.99 110.5,303C 109.333,301.833 108.167,300.667 107,299.5C 106.333,250.167 106.333,200.833 107,151.5C 107.69,149.65 108.856,148.316 110.5,147.5 Z M 122.5,163.5 C 122.333,186.169 122.5,208.836 123,231.5C 136.514,225.902 149.68,226.736 162.5,234C 170.5,240 178.5,246 186.5,252C 193.112,256.075 200.112,257.075 207.5,255C 214.545,250.477 221.878,246.477 229.5,243C 235.088,241.711 240.755,241.211 246.5,241.5C 246.5,215.5 246.5,189.5 246.5,163.5C 205.167,163.5 163.833,163.5 122.5,163.5 Z M 202.5,195.5 C 199.608,197.232 197.608,199.732 196.5,203C 199.675,211.388 204.509,212.554 211,206.5C 212.519,199.515 209.685,195.848 202.5,195.5 Z M 133.5,244.5 C 129.904,245.712 126.404,247.379 123,249.5C 122.5,262.162 122.333,274.829 122.5,287.5C 163.833,287.5 205.167,287.5 246.5,287.5C 247.126,277.405 246.459,267.572 244.5,258C 235.966,257.263 228.633,259.929 222.5,266C 208.333,274.198 193.999,274.531 179.5,267C 172.216,262.05 165.216,256.717 158.5,251C 151.125,245.266 142.791,243.099 133.5,244.5 Z"/></g>
<g><path style="opacity:0.942" fill="#000000" d="M 285.5,153.5 C 324.168,153.333 362.835,153.5 401.5,154C 408.987,158.606 409.321,163.606 402.5,169C 363.5,169.667 324.5,169.667 285.5,169C 282.295,167.585 280.628,165.085 280.5,161.5C 281.177,158.133 282.843,155.466 285.5,153.5 Z"/></g>
<g><path style="opacity:0.926" fill="#000000" d="M 198.5,179.5 C 215.728,178.237 225.728,186.071 228.5,203C 225.124,222.347 213.791,229.681 194.5,225C 180.872,216.667 177.372,205.167 184,190.5C 187.857,185.468 192.69,181.801 198.5,179.5 Z M 202.5,195.5 C 199.608,197.232 197.608,199.732 196.5,203C 199.675,211.388 204.509,212.554 211,206.5C 212.519,199.515 209.685,195.848 202.5,195.5 Z"/></g>
<g><path style="opacity:0.892" fill="#000000" d="M 288.5,186.5 C 325.502,186.333 362.502,186.5 399.5,187C 406.316,188.78 408.483,192.946 406,199.5C 404.681,201.487 402.848,202.654 400.5,203C 362.833,203.667 325.167,203.667 287.5,203C 281.158,200.817 279.325,196.65 282,190.5C 283.792,188.372 285.958,187.039 288.5,186.5 Z"/></g>
<g><path style="opacity:0.943" fill="#000000" d="M 285.5,220.5 C 324.168,220.333 362.835,220.5 401.5,221C 408.922,225.516 409.255,230.516 402.5,236C 363.5,236.667 324.5,236.667 285.5,236C 282.295,234.585 280.628,232.085 280.5,228.5C 281.177,225.133 282.843,222.466 285.5,220.5 Z"/></g>
<g><path style="opacity:0.892" fill="#000000" d="M 288.5,253.5 C 325.502,253.333 362.502,253.5 399.5,254C 406.316,255.78 408.483,259.946 406,266.5C 404.681,268.487 402.848,269.654 400.5,270C 362.833,270.667 325.167,270.667 287.5,270C 281.158,267.817 279.325,263.65 282,257.5C 283.792,255.372 285.958,254.039 288.5,253.5 Z"/></g>
<g><path style="opacity:0.93" fill="#000000" d="M 285.5,287.5 C 304.836,287.333 324.17,287.5 343.5,288C 348.299,291.071 349.465,295.238 347,300.5C 346.097,301.701 344.931,302.535 343.5,303C 324.167,303.667 304.833,303.667 285.5,303C 278.914,297.84 278.914,292.673 285.5,287.5 Z"/></g>
<g><path style="opacity:0.93" fill="#000000" d="M 252.5,349.5 C 270.33,347.235 280.664,354.901 283.5,372.5C 281.877,386.623 274.043,394.623 260,396.5C 240.638,393.112 233.304,381.779 238,362.5C 241.367,356.42 246.2,352.087 252.5,349.5 Z M 256.5,365.5 C 255.542,366.962 254.376,368.295 253,369.5C 252.565,378.062 256.398,380.895 264.5,378C 268.215,369.868 265.549,365.701 256.5,365.5 Z"/></g>
</svg>
